<svg xmlns="http://www.w3.org/2000/svg" width="100%" height="100%" 
  viewBox="0 0 1000 1000">
    <title>SD Logo</title>
    <path fill="#FFF" d="M0,0V625H591.54A251.23,251.23,0,0,0,500,533.45h0A248.86,248.86,0,0,0,375,500H500V375H33.45A249.89,249.89,0,0,0,248.39,500H0V375H33.45A248.94,248.94,0,0,1,0,250H500V125H33.45A248.87,248.87,0,0,0,0,250V125H33.45A249.91,249.91,0,0,1,246.87,0H500A501,501,0,0,1,625,15.75V0H750V66.9A502.42,502.42,0,0,1,875,169.28V830.72A502.42,502.42,0,0,1,750,933.1V875H591.54A248.76,248.76,0,0,0,625,750H750V66.9A496.75,496.75,0,0,0,625,15.76V625H591.55A248.88,248.88,0,0,1,625,750H0V875H591.55A249.9,249.9,0,0,1,375,1000H875V830.72a500,500,0,0,0,0-661.44V0H0ZM750,1000H500a497.59,497.59,0,0,0,250-66.9Z"/>
</svg>